<svg id="visual" viewBox="0 0 900 600" width="900" height="600" xmlns="http://www.w3.org/2000/svg" xmlns:xlink="http://www.w3.org/1999/xlink" version="1.1"><rect width="900" height="600" fill="#42486E"></rect><g><g transform="translate(778 496)"><path d="M0 -129.5L129.5 0L0 129.5L-129.5 0Z" fill="none" stroke="#B9C3DE" stroke-width="2"></path></g><g transform="translate(876 75)"><path d="M0 -84L84 0L0 84L-84 0Z" fill="none" stroke="#B9C3DE" stroke-width="2"></path></g><g transform="translate(23 28)"><path d="M0 -100L100 0L0 100L-100 0Z" fill="none" stroke="#B9C3DE" stroke-width="2"></path></g><g transform="translate(435 457)"><path d="M0 -111L111 0L0 111L-111 0Z" fill="none" stroke="#B9C3DE" stroke-width="2"></path></g><g transform="translate(623 16)"><path d="M0 -106L106 0L0 106L-106 0Z" fill="none" stroke="#B9C3DE" stroke-width="2"></path></g><g transform="translate(397 156)"><path d="M0 -88L88 0L0 88L-88 0Z" fill="none" stroke="#B9C3DE" stroke-width="2"></path></g></g></svg>