<?xml version="1.0" encoding="UTF-8" standalone="no"?> <!-- Created with Vectornator for iOS (http://vectornator.io/) --><!DOCTYPE svg PUBLIC "-//W3C//DTD SVG 1.1//EN" "http://www.w3.org/Graphics/SVG/1.1/DTD/svg11.dtd">
<svg height="100%" style="fill-rule:evenodd;clip-rule:evenodd;stroke-linecap:round;strokelinejoin:round;" xmlns:xlink="http://www.w3.org/1999/xlink" xmlns="http://www.w3.org/2000/svg" xml:space="preserve" width="100%" xmlns:vectornator="http://vectornator.io" version="1.1" viewBox="0 0 50 50">
<g id="Layer 1" vectornator:layerName="Layer 1">
<path d="M0+25C4.44089e-16+38.8071+11.1929+50+25+50C38.8071+50+50+38.8071+50+25C50+11.1929+38.8071+1.48017e-06+25+1.48017e-06C11.1929+1.48017e-06+0+11.1929+0+25Z" opacity="1" fill="#434970"/>
</g>
<g id="Layer 2" vectornator:layerName="Layer 2">
<g opacity="1">
<path d="M8.85219+26.2091C8.85219+22.1094+10.6366+16.6783+12.9368+13.4869C15.8992+9.37663+19.9827+8.03125+25.0042+8.03125C29.5695+8.03125+33.48+9.94133+36.2434+12.8612C39.0929+15.8719+41.1562+20.4353+41.1562+25.0146C41.1562+29.4079+40.6606+32.2642+37.8086+35.2794C34.5715+38.7017+28.6806+41.998+23.9383+41.998C15.0178+41.998+8.85219+35.5887+8.85219+26.2091Z" opacity="1" fill="#cccccc"/>
<path d="M25+8.03125C19.9785+8.03125+15.9+9.35852+12.9375+13.4688C11.5866+15.343+10.4595+17.9926+9.71875+20.6875C10.1846+21.1182+10.5625+21.7046+10.5625+22.5625C10.5625+23.8468+9.84384+24.8544+8.96875+24.9375C8.9373+25.3491+8.84375+25.7969+8.84375+26.1875C8.84375+35.5672+15.017+41.9688+23.9375+41.9688C26.9764+41.9687+30.4232+40.5605+33.4062+38.6875C33.3563+38.6004+33.2188+38.5336+33.2188+38.4375C33.2188+37.9299+33.9799+37.5312+34.9062+37.5312C34.9929+37.5312+35.0419+37.5868+35.125+37.5938C36.1247+36.8474+37.0551+36.0508+37.8125+35.25C40.6645+32.2348+41.1562+29.3933+41.1562+25C41.1562+20.4206+39.0994+15.8545+36.25+12.8438C35.2439+11.7807+34.0383+10.9365+32.75+10.1875C32.3164+10.6561+31.6351+11.0313+30.6562+11.0312C29.2375+11.0312+28.0938+10.3567+28.0938+9.53125C28.0938+9.14619+28.3701+8.79622+28.7812+8.53125C27.5739+8.23173+26.3292+8.03125+25+8.03125ZM19.0625+13.9375C19.762+13.9375+20.1052+14.5165+20.3438+15.0938C20.811+16.2246+19.762+16.2188+19.0625+16.2188C17.7959+16.2188+17.8125+15.7183+17.8125+15.0938C17.8125+14.4692+18.363+13.9375+19.0625+13.9375ZM33.4062+16.2188C35.4683+16.2188+36.0625+17.3059+36.0625+18.6562C36.0625+20.0066+34.8662+21.0938+33.4062+21.0938C32.6842+21.0938+31.6021+20.8402+31.125+20.4062C30.6374+19.9627+30.7813+19.3388+30.7812+18.6562C30.7813+17.3059+31.9463+16.2188+33.4062+16.2188ZM24.5625+19.6875C24.8064+19.6875+24.7442+19.8289+25+19.9375C25.4599+20.1327+25.2439+20.5937+25+20.5938C24.7561+20.5938+24.125+20.0788+24.125+19.9375C24.125+19.7962+24.3186+19.6875+24.5625+19.6875ZM25.4688+26.4375C25.8727+26.4375+26.2225+26.6239+26.4688+26.9375C26.6747+27.1998+26.8125+27.5621+26.8125+27.9375C26.8125+29.4298+26.2105+29.4062+25.4688+29.4062C24.727+29.4062+24.125+28.7617+24.125+27.9375C24.125+27.1133+25.0089+26.4375+25.4688+26.4375ZM16.75+29.4062C17.3398+29.4062+17.8125+29.8918+17.8125+30.4688C17.8125+31.5134+17.3398+31.5+16.75+31.5C16.1602+31.5+15.6875+31.0457+15.6875+30.4688C15.6875+29.8918+16.1602+29.4062+16.75+29.4062ZM33+29.4062C33.4737+29.4062+33.8437+29.4241+33.8438+30.4688C33.8437+31.5134+33.4737+31.5+33+31.5C32.5263+31.5+32.125+31.0457+32.125+30.4688C32.125+29.8918+32.5263+29.4062+33+29.4062ZM19.7188+36.9688C20.0685+36.9688+20.461+36.9566+20.3438+37.5938C20.2801+37.9399+20.0685+38.25+19.7188+38.25C19.369+38.25+19.0625+37.9457+19.0625+37.5938C19.0625+37.2418+19.369+36.9687+19.7188+36.9688Z" opacity="1" fill="#ebebeb"/>
</g>
<path d="M47.7022-15.6038C47.7022-15.6887+47.7105-15.7576+47.7208-15.7576C47.731-15.7576+47.7393-15.6887+47.7393-15.6038C47.7393-15.5189+47.731-15.4501+47.7208-15.4501C47.7105-15.4501+47.7022-15.5189+47.7022-15.6038Z" opacity="1" fill="#bebebe"/>
</g>
</svg>