<?xml version="1.0" encoding="UTF-8" standalone="no"?>
<svg style="fill-rule:evenodd;clip-rule:evenodd;stroke-linecap:round;stroke-linejoin:round;" xmlns:vectornator="http://vectornator.io" xmlns:xlink="http://www.w3.org/1999/xlink" xmlns="http://www.w3.org/2000/svg" xml:space="preserve" version="1.1" viewBox="0 0 1800 120">
<path d="M0+120L75+103.313C150+86.875+300+53.125+450+46.6875C600+40+750+60+900+73.3125C1050+86.875+1200+93.125+1350+93.3125C1500+93.125+1650+86.875+1725+83.3125L1800+80L1800+0L1725+0C1650+0+1500+0+1350+0C1200+0+1050+0+900+0C750+0+600+0+450+0C300+0+150+0+75+0L0+0L0+120Z" opacity="1" fill="#efefef"/>
</svg>
